# xmcd
#
# Track frame offsets: 
#        150
#        19413
#        41770
#        64502
#        79684
#        101064
#        114452
#        137835
#        156882
#        172337
#        193532
#        213385
#        232990
#        249557
#        267514
#        288751
#        305994
#
# Disc length: 4360 seconds
#
# Revision: 1
# Processed by: cddbd v1.5.2PL0 Copyright (c) Steve Scherf et al.
# Submitted via: ExactAudioCopy v0.95b4
#
DISCID=fb110611
DTITLE=Various Artist - A Decade of Jazz Diva
DYEAR=1998
DGENRE=Jazz
TTITLE0=Old Flames Never Die
TTITLE1=The Sentimental Touch
TTITLE2=The Man You Were
TTITLE3=It Wasn't Paris, It Was You
TTITLE4=Breakfast With The Blues
TTITLE5=Make Up Your Mind
TTITLE6=Solitaire
TTITLE7=Solitaire*
TTITLE8=Way Back Home
TTITLE9=Forever Is A Long, Long Time
TTITLE10=Another Spring
TTITLE11=Sleepless Hours
TTITLE12=Sleepless Hours*
TTITLE13=Butterflies Are Free
TTITLE14=I'm Out Of Here
TTITLE15=Illusion
TTITLE16=The Honeymoon Is Over Now
EXTD=YEAR: 1998
EXTT0=
EXTT1=
EXTT2=
EXTT3=
EXTT4=
EXTT5=
EXTT6=
EXTT7=
EXTT8=
EXTT9=
EXTT10=
EXTT11=
EXTT12=
EXTT13=
EXTT14=
EXTT15=
EXTT16=
PLAYORDER=
